<?xml version="1.0" standalone="no"?>
<!DOCTYPE svg PUBLIC "-//W3C//DTD SVG 20010904//EN"
 "http://www.w3.org/TR/2001/REC-SVG-20010904/DTD/svg10.dtd">
<svg version="1.0" xmlns="http://www.w3.org/2000/svg"
 width="298.000000pt" height="298.000000pt" viewBox="0 0 298.000000 298.000000"
 preserveAspectRatio="xMidYMid meet">
<metadata>
Created by potrace 1.14, written by Peter Selinger 2001-2017
</metadata>
<g transform="translate(0.000000,298.000000) scale(0.100000,-0.100000)"
fill="#000000" stroke="none">
<path d="M1469 2952 c-86 -66 -172 -185 -214 -298 -14 -38 -26 -70 -25 -71 0
-2 0 -4 -1 -5 -3 -11 -10 -51 -16 -93 -10 -77 -7 -150 11 -275 5 -33 53 -160
67 -177 6 -7 8 -13 3 -13 -5 0 -4 -4 1 -8 6 -4 24 -27 40 -51 34 -50 103 -123
153 -161 19 -14 39 -30 45 -36 28 -25 140 -96 155 -98 13 -2 21 13 34 68 16
68 16 72 -2 89 -11 9 -22 17 -25 17 -13 0 -133 96 -182 146 -81 82 -141 215
-148 328 -2 28 -4 53 -5 56 -2 3 -2 8 -1 12 0 4 3 32 5 62 3 31 10 75 17 99 6
23 11 44 11 47 -1 10 70 136 89 160 l21 25 24 -30 c13 -17 24 -36 24 -42 0 -7
4 -13 9 -13 13 0 52 -101 67 -173 14 -71 11 -245 -5 -276 -7 -12 -8 -21 -4
-21 4 0 2 -5 -5 -12 -7 -7 -12 -19 -12 -27 0 -9 -14 -42 -30 -73 -19 -35 -26
-58 -19 -58 7 0 10 -3 6 -6 -3 -4 17 -26 45 -50 l52 -44 28 46 c25 40 72 135
76 157 1 4 2 8 3 10 18 54 27 144 25 247 -4 139 -6 153 -41 246 -30 80 -50
116 -93 172 -18 23 -31 42 -28 42 7 0 -47 53 -85 82 l-35 26 -35 -26z"/>
<path d="M447 2303 c-1 0 -22 -4 -47 -7 -59 -6 -75 -11 -135 -33 -53 -20 -54
-21 -41 -98 8 -54 63 -188 91 -223 6 -7 35 -43 65 -82 30 -38 58 -69 62 -70 4
0 20 -12 35 -26 67 -63 206 -129 330 -159 52 -12 249 -13 291 -1 12 3 30 8 40
10 26 6 159 60 225 92 68 31 79 49 47 71 -13 9 -35 29 -50 45 -15 15 -32 28
-38 28 -6 0 -36 -11 -66 -25 -30 -14 -60 -25 -65 -25 -6 0 -11 -5 -11 -12 0
-6 -3 -9 -6 -5 -4 3 -19 0 -34 -8 -15 -8 -30 -11 -34 -8 -3 4 -6 2 -6 -3 0
-22 -210 -25 -285 -5 -65 18 -187 74 -204 95 -7 9 -18 16 -23 16 -11 0 -99 89
-131 131 -26 35 -69 130 -62 137 20 20 157 16 249 -7 44 -11 178 -75 209 -100
58 -46 161 -160 158 -176 -3 -15 27 -32 49 -28 14 3 30 6 35 7 32 5 75 31 75
43 0 25 -85 145 -140 198 -75 72 -85 81 -101 88 -8 4 -32 18 -54 32 -37 23
-86 48 -93 46 -1 -1 -15 5 -31 13 -15 8 -39 17 -52 20 -13 3 -41 9 -61 15 -20
5 -39 6 -42 4 -2 -3 -11 -1 -18 3 -11 7 -125 13 -131 7z"/>
<path d="M2456 2302 c-2 -2 -26 -5 -53 -7 -91 -7 -225 -60 -324 -128 -69 -46
-171 -148 -206 -203 -14 -22 -67 -127 -68 -134 0 -3 -3 -9 -6 -15 -22 -36 -39
-157 -44 -312 l-5 -121 28 8 c111 34 122 41 123 73 1 73 18 230 28 264 14 49
53 127 85 168 41 55 124 133 160 152 17 9 33 19 36 22 7 8 79 41 100 45 3 1
10 4 15 7 9 6 37 13 91 23 28 6 80 8 132 7 50 -1 53 -12 20 -80 -25 -54 -68
-112 -118 -161 -44 -44 -105 -90 -119 -90 -5 0 -16 -6 -23 -13 -33 -32 -176
-73 -271 -76 -31 -1 -42 -22 -53 -99 -5 -44 -4 -50 14 -54 11 -3 25 -1 31 5 7
7 14 7 24 -1 8 -7 17 -9 20 -6 3 3 21 7 39 9 45 4 123 22 163 39 18 8 36 12
39 8 3 -3 6 0 6 6 0 7 3 11 8 10 10 -4 132 65 132 74 0 5 4 8 10 8 19 0 142
114 133 124 -4 3 -2 6 4 6 27 0 144 219 135 253 -1 4 2 7 7 7 4 0 8 12 9 28 0
15 1 29 2 32 8 24 8 55 -1 66 -14 17 -92 42 -154 50 -66 7 -145 11 -149 6z"/>
<path d="M1153 1538 c-37 -11 -64 -26 -67 -36 -3 -10 -8 -60 -12 -112 -6 -102
-30 -226 -45 -236 -5 -3 -7 -10 -4 -15 4 -5 2 -9 -3 -9 -4 0 -16 -15 -25 -34
-33 -70 -117 -155 -213 -216 -26 -16 -51 -27 -55 -24 -5 3 -9 0 -9 -5 0 -6 -9
-11 -20 -11 -11 0 -20 -5 -20 -12 0 -6 -3 -8 -6 -5 -4 3 -14 2 -23 -2 -38 -21
-226 -36 -251 -21 -16 10 -2 52 42 118 15 24 28 46 28 49 0 24 200 182 222
175 4 -1 8 2 8 8 0 6 3 9 8 8 4 -1 16 3 28 9 11 7 32 14 45 17 13 3 42 10 64
15 22 6 59 11 83 12 38 3 45 7 56 33 7 17 13 51 15 77 l2 45 -68 -2 c-37 -1
-79 -5 -93 -8 -14 -4 -38 -8 -53 -11 -68 -13 -191 -69 -267 -122 -81 -56 -200
-182 -200 -212 0 -6 -3 -11 -7 -11 -14 0 -76 -148 -86 -205 -3 -17 -8 -42 -11
-56 -7 -30 13 -61 40 -64 10 -1 26 -5 34 -8 43 -16 78 -23 108 -22 17 1 32 -2
32 -6 0 -4 10 -6 23 -4 12 2 51 6 87 9 59 6 96 11 110 16 3 1 10 3 15 5 6 1
12 3 15 4 3 2 13 4 23 6 33 6 146 63 207 105 76 52 163 141 198 202 15 27 30
48 35 48 4 0 7 5 7 11 0 5 9 30 20 54 11 24 22 54 24 67 3 13 5 23 6 23 13 0
36 254 31 348 -1 31 3 31 -78 5z"/>
<path d="M1964 1351 c-2 -3 -21 -6 -42 -7 -20 -1 -64 -11 -97 -23 -33 -12 -64
-23 -70 -25 -5 -1 -32 -13 -60 -25 -27 -12 -62 -27 -77 -34 -33 -14 -44 -38
-24 -49 8 -4 33 -26 55 -47 l41 -39 80 35 c45 19 87 36 93 37 7 1 17 4 22 8 8
5 98 19 130 20 26 2 151 -14 160 -20 5 -4 15 -7 20 -8 8 -2 38 -13 75 -30 3
-1 15 -5 28 -9 12 -4 22 -12 22 -17 0 -5 4 -7 9 -4 5 3 14 -1 21 -9 7 -8 19
-15 27 -15 8 0 11 -4 8 -10 -3 -5 0 -10 8 -10 22 0 132 -125 166 -190 44 -82
39 -88 -72 -85 -51 1 -112 8 -137 15 -25 6 -46 11 -48 11 -1 -1 -39 17 -84 41
-95 49 -205 150 -254 234 -12 20 -57 24 -92 8 -22 -9 -28 -11 -47 -13 -8 0
-15 -8 -15 -16 0 -33 90 -164 151 -220 49 -45 59 -53 59 -49 0 3 12 -6 26 -19
28 -26 169 -100 191 -100 7 0 13 -4 13 -7 0 -6 23 -12 100 -26 63 -11 156 -19
170 -14 3 1 25 3 50 5 55 4 70 8 140 32 55 19 55 20 54 59 -1 21 -5 50 -8 63
-11 47 -59 161 -68 161 -5 0 -6 5 -3 10 3 6 1 10 -4 10 -6 0 -11 6 -11 13 0
22 -106 143 -167 190 -94 72 -218 132 -317 153 -68 14 -213 24 -222 15z"/>
<path d="M1295 1312 c-6 -4 -11 -14 -11 -22 0 -8 -5 -37 -12 -64 -7 -27 -12
-49 -10 -50 90 -61 189 -138 220 -170 67 -69 128 -185 145 -276 12 -60 6 -290
-7 -290 -3 0 -6 -9 -7 -20 -2 -20 -49 -124 -65 -145 -5 -5 -18 -23 -29 -38
l-21 -28 -24 28 c-51 59 -111 216 -109 285 1 16 -3 28 -7 28 -5 0 -4 9 2 20 7
13 7 20 1 20 -6 0 -8 6 -6 13 2 6 6 35 9 62 7 63 31 147 62 207 13 26 24 51
24 56 0 16 -83 92 -100 92 -34 0 -118 -193 -135 -312 -12 -75 -6 -243 9 -266
4 -7 5 -16 2 -19 -3 -3 -1 -12 5 -20 6 -7 9 -13 5 -13 -7 0 35 -112 56 -150
49 -89 151 -210 177 -210 6 0 11 -4 11 -8 0 -38 119 63 182 153 30 45 76 132
79 152 1 5 6 19 11 33 37 91 48 283 23 402 -17 78 -63 198 -77 198 -5 0 -6 5
-3 10 3 6 1 10 -5 10 -6 0 -8 5 -5 10 3 6 1 10 -4 10 -6 0 -11 6 -11 14 0 15
-113 133 -173 181 -49 38 -178 125 -186 125 -3 0 -11 -4 -16 -8z"/>
</g>
</svg>
